G75*
%MOIN*%
%OFA0B0*%
%FSLAX25Y25*%
%IPPOS*%
%LPD*%
%AMOC8*
5,1,8,0,0,1.08239X$1,22.5*
%
%ADD10C,0.01600*%
%ADD11OC8,0.08400*%
%ADD12R,0.07400X0.07400*%
%ADD13C,0.07400*%
%ADD14OC8,0.06000*%
%ADD15R,0.06800X0.26300*%
%ADD16C,0.04800*%
D10*
X0176500Y0046900D02*
X0176500Y0186900D01*
X0401500Y0186900D01*
X0401500Y0046900D01*
X0366500Y0046900D01*
X0366500Y0001900D01*
X0211500Y0001900D01*
X0211500Y0046900D01*
X0176500Y0046900D01*
D11*
X0361500Y0071900D03*
X0381500Y0071900D03*
D12*
X0364500Y0159900D03*
D13*
X0354500Y0159900D03*
X0344500Y0159900D03*
X0334500Y0159900D03*
X0324500Y0159900D03*
X0314500Y0159900D03*
X0304500Y0159900D03*
X0294500Y0159900D03*
X0284500Y0159900D03*
X0274500Y0159900D03*
X0264500Y0159900D03*
X0254500Y0159900D03*
X0244500Y0159900D03*
X0234500Y0159900D03*
X0224500Y0159900D03*
X0214500Y0159900D03*
X0214500Y0099900D03*
X0224500Y0099900D03*
X0234500Y0099900D03*
X0244500Y0099900D03*
X0254500Y0099900D03*
X0264500Y0099900D03*
X0274500Y0099900D03*
X0284500Y0099900D03*
X0294500Y0099900D03*
X0304500Y0099900D03*
X0314500Y0099900D03*
X0324500Y0099900D03*
X0334500Y0099900D03*
X0344500Y0099900D03*
X0354500Y0099900D03*
X0364500Y0099900D03*
D14*
X0386500Y0106900D03*
X0386500Y0116900D03*
X0386500Y0141900D03*
X0386500Y0151900D03*
X0191500Y0151900D03*
X0191500Y0141900D03*
X0191500Y0116900D03*
X0191500Y0106900D03*
D15*
X0219000Y0019400D03*
X0229000Y0019400D03*
X0239000Y0019400D03*
X0249000Y0019400D03*
X0259000Y0019400D03*
X0269000Y0019400D03*
X0279000Y0019400D03*
X0289000Y0019400D03*
X0299000Y0019400D03*
X0309000Y0019400D03*
X0319000Y0019400D03*
X0329000Y0019400D03*
X0339000Y0019400D03*
X0349000Y0019400D03*
X0359000Y0019400D03*
D16*
X0218300Y0056300D03*
X0365000Y0142700D03*
X0330800Y0170600D03*
M02*
