G75*
%MOIN*%
%OFA0B0*%
%FSLAX25Y25*%
%IPPOS*%
%LPD*%
%AMOC8*
5,1,8,0,0,1.08239X$1,22.5*
%
%ADD10C,0.01600*%
%ADD11OC8,0.07600*%
%ADD12R,0.06600X0.06600*%
%ADD13C,0.06600*%
%ADD14OC8,0.05200*%
%ADD15R,0.06000X0.25500*%
%ADD16C,0.01000*%
%ADD17C,0.04000*%
D10*
X0176500Y0046900D02*
X0176500Y0186900D01*
X0401500Y0186900D01*
X0401500Y0046900D01*
X0366500Y0046900D01*
X0366500Y0001900D01*
X0211500Y0001900D01*
X0211500Y0046900D01*
X0176500Y0046900D01*
X0182100Y0052500D02*
X0182100Y0181300D01*
X0395900Y0181300D01*
X0395900Y0052500D01*
X0365386Y0052500D01*
X0364846Y0052276D01*
X0379167Y0066597D01*
X0379263Y0066500D01*
X0383737Y0066500D01*
X0386900Y0069663D01*
X0386900Y0074137D01*
X0386803Y0074233D01*
X0393200Y0080630D01*
X0393200Y0122870D01*
X0391970Y0124100D01*
X0361700Y0154370D01*
X0361700Y0155000D01*
X0368463Y0155000D01*
X0369400Y0155937D01*
X0369400Y0163863D01*
X0368463Y0164800D01*
X0360537Y0164800D01*
X0359954Y0164216D01*
X0355070Y0169100D01*
X0334075Y0169100D01*
X0334400Y0169884D01*
X0334400Y0171316D01*
X0334075Y0172100D01*
X0363230Y0172100D01*
X0382300Y0153030D01*
X0382300Y0150160D01*
X0384760Y0147700D01*
X0388240Y0147700D01*
X0390700Y0150160D01*
X0390700Y0153640D01*
X0388240Y0156100D01*
X0385170Y0156100D01*
X0364970Y0176300D01*
X0216530Y0176300D01*
X0215300Y0175070D01*
X0194930Y0154700D01*
X0194640Y0154700D01*
X0193240Y0156100D01*
X0189760Y0156100D01*
X0187300Y0153640D01*
X0187300Y0150160D01*
X0189060Y0148400D01*
X0188630Y0148400D01*
X0185930Y0145700D01*
X0184700Y0144470D01*
X0184700Y0078830D01*
X0211030Y0052500D01*
X0182100Y0052500D01*
X0182100Y0052848D02*
X0210682Y0052848D01*
X0209084Y0054446D02*
X0182100Y0054446D01*
X0182100Y0056045D02*
X0207485Y0056045D01*
X0205887Y0057643D02*
X0182100Y0057643D01*
X0182100Y0059242D02*
X0204288Y0059242D01*
X0202690Y0060840D02*
X0182100Y0060840D01*
X0182100Y0062439D02*
X0201091Y0062439D01*
X0199493Y0064037D02*
X0182100Y0064037D01*
X0182100Y0065636D02*
X0197894Y0065636D01*
X0196296Y0067234D02*
X0182100Y0067234D01*
X0182100Y0068833D02*
X0194697Y0068833D01*
X0193099Y0070432D02*
X0182100Y0070432D01*
X0182100Y0072030D02*
X0191500Y0072030D01*
X0189902Y0073629D02*
X0182100Y0073629D01*
X0182100Y0075227D02*
X0188303Y0075227D01*
X0186705Y0076826D02*
X0182100Y0076826D01*
X0182100Y0078424D02*
X0185106Y0078424D01*
X0184700Y0080023D02*
X0182100Y0080023D01*
X0182100Y0081621D02*
X0184700Y0081621D01*
X0184700Y0083220D02*
X0182100Y0083220D01*
X0182100Y0084818D02*
X0184700Y0084818D01*
X0184700Y0086417D02*
X0182100Y0086417D01*
X0182100Y0088015D02*
X0184700Y0088015D01*
X0184700Y0089614D02*
X0182100Y0089614D01*
X0182100Y0091212D02*
X0184700Y0091212D01*
X0184700Y0092811D02*
X0182100Y0092811D01*
X0182100Y0094409D02*
X0184700Y0094409D01*
X0184700Y0096008D02*
X0182100Y0096008D01*
X0182100Y0097606D02*
X0184700Y0097606D01*
X0184700Y0099205D02*
X0182100Y0099205D01*
X0182100Y0100803D02*
X0184700Y0100803D01*
X0184700Y0102402D02*
X0182100Y0102402D01*
X0182100Y0104000D02*
X0184700Y0104000D01*
X0184700Y0105599D02*
X0182100Y0105599D01*
X0182100Y0107197D02*
X0184700Y0107197D01*
X0184700Y0108796D02*
X0182100Y0108796D01*
X0182100Y0110394D02*
X0184700Y0110394D01*
X0184700Y0111993D02*
X0182100Y0111993D01*
X0182100Y0113591D02*
X0184700Y0113591D01*
X0184700Y0115190D02*
X0182100Y0115190D01*
X0182100Y0116788D02*
X0184700Y0116788D01*
X0184700Y0118387D02*
X0182100Y0118387D01*
X0182100Y0119985D02*
X0184700Y0119985D01*
X0184700Y0121584D02*
X0182100Y0121584D01*
X0182100Y0123182D02*
X0184700Y0123182D01*
X0184700Y0124781D02*
X0182100Y0124781D01*
X0182100Y0126379D02*
X0184700Y0126379D01*
X0184700Y0127978D02*
X0182100Y0127978D01*
X0182100Y0129576D02*
X0184700Y0129576D01*
X0184700Y0131175D02*
X0182100Y0131175D01*
X0182100Y0132773D02*
X0184700Y0132773D01*
X0184700Y0134372D02*
X0182100Y0134372D01*
X0182100Y0135970D02*
X0184700Y0135970D01*
X0184700Y0137569D02*
X0182100Y0137569D01*
X0182100Y0139168D02*
X0184700Y0139168D01*
X0184700Y0140766D02*
X0182100Y0140766D01*
X0182100Y0142365D02*
X0184700Y0142365D01*
X0184700Y0143963D02*
X0182100Y0143963D01*
X0182100Y0145562D02*
X0185792Y0145562D01*
X0187390Y0147160D02*
X0182100Y0147160D01*
X0182100Y0148759D02*
X0188702Y0148759D01*
X0187300Y0150357D02*
X0182100Y0150357D01*
X0182100Y0151956D02*
X0187300Y0151956D01*
X0187300Y0153554D02*
X0182100Y0153554D01*
X0182100Y0155153D02*
X0188813Y0155153D01*
X0182100Y0156751D02*
X0196981Y0156751D01*
X0195383Y0155153D02*
X0194187Y0155153D01*
X0198580Y0158350D02*
X0182100Y0158350D01*
X0182100Y0159948D02*
X0200178Y0159948D01*
X0201777Y0161547D02*
X0182100Y0161547D01*
X0182100Y0163145D02*
X0203375Y0163145D01*
X0204974Y0164744D02*
X0182100Y0164744D01*
X0182100Y0166342D02*
X0206572Y0166342D01*
X0208171Y0167941D02*
X0182100Y0167941D01*
X0182100Y0169539D02*
X0209769Y0169539D01*
X0211368Y0171138D02*
X0182100Y0171138D01*
X0182100Y0172736D02*
X0212966Y0172736D01*
X0214565Y0174335D02*
X0182100Y0174335D01*
X0182100Y0175933D02*
X0216163Y0175933D01*
X0217370Y0168500D02*
X0219530Y0168500D01*
X0218900Y0167870D01*
X0215726Y0164696D01*
X0215475Y0164800D01*
X0213670Y0164800D01*
X0217370Y0168500D01*
X0216811Y0167941D02*
X0218971Y0167941D01*
X0217372Y0166342D02*
X0215212Y0166342D01*
X0215611Y0164744D02*
X0215774Y0164744D01*
X0209600Y0160730D02*
X0209600Y0158925D01*
X0210346Y0157124D01*
X0211724Y0155746D01*
X0213525Y0155000D01*
X0215475Y0155000D01*
X0217100Y0155673D01*
X0217100Y0104127D01*
X0215475Y0104800D01*
X0213525Y0104800D01*
X0211724Y0104054D01*
X0210346Y0102676D01*
X0209600Y0100875D01*
X0209600Y0100370D01*
X0197900Y0112070D01*
X0197900Y0139070D01*
X0195700Y0141270D01*
X0195700Y0143640D01*
X0194105Y0145235D01*
X0194300Y0145430D01*
X0209600Y0160730D01*
X0209600Y0159948D02*
X0208818Y0159948D01*
X0209838Y0158350D02*
X0207219Y0158350D01*
X0205621Y0156751D02*
X0210719Y0156751D01*
X0213157Y0155153D02*
X0204022Y0155153D01*
X0202424Y0153554D02*
X0217100Y0153554D01*
X0217100Y0151956D02*
X0200825Y0151956D01*
X0199227Y0150357D02*
X0217100Y0150357D01*
X0217100Y0148759D02*
X0197628Y0148759D01*
X0196030Y0147160D02*
X0217100Y0147160D01*
X0217100Y0145562D02*
X0194431Y0145562D01*
X0195377Y0143963D02*
X0217100Y0143963D01*
X0217100Y0142365D02*
X0195700Y0142365D01*
X0196204Y0140766D02*
X0217100Y0140766D01*
X0217100Y0139168D02*
X0197802Y0139168D01*
X0197900Y0137569D02*
X0217100Y0137569D01*
X0217100Y0135970D02*
X0197900Y0135970D01*
X0197900Y0134372D02*
X0217100Y0134372D01*
X0217100Y0132773D02*
X0197900Y0132773D01*
X0197900Y0131175D02*
X0217100Y0131175D01*
X0217100Y0129576D02*
X0197900Y0129576D01*
X0197900Y0127978D02*
X0217100Y0127978D01*
X0217100Y0126379D02*
X0197900Y0126379D01*
X0197900Y0124781D02*
X0217100Y0124781D01*
X0217100Y0123182D02*
X0197900Y0123182D01*
X0197900Y0121584D02*
X0217100Y0121584D01*
X0217100Y0119985D02*
X0197900Y0119985D01*
X0197900Y0118387D02*
X0217100Y0118387D01*
X0217100Y0116788D02*
X0197900Y0116788D01*
X0197900Y0115190D02*
X0217100Y0115190D01*
X0217100Y0113591D02*
X0197900Y0113591D01*
X0197977Y0111993D02*
X0217100Y0111993D01*
X0217100Y0110394D02*
X0199576Y0110394D01*
X0201174Y0108796D02*
X0217100Y0108796D01*
X0217100Y0107197D02*
X0202773Y0107197D01*
X0204371Y0105599D02*
X0217100Y0105599D01*
X0221300Y0105599D02*
X0222731Y0105599D01*
X0222500Y0105830D02*
X0223530Y0104800D01*
X0223525Y0104800D01*
X0221724Y0104054D01*
X0221300Y0103630D01*
X0221300Y0156170D01*
X0221724Y0155746D01*
X0222500Y0155425D01*
X0222500Y0105830D01*
X0222500Y0107197D02*
X0221300Y0107197D01*
X0221300Y0108796D02*
X0222500Y0108796D01*
X0222500Y0110394D02*
X0221300Y0110394D01*
X0221300Y0111993D02*
X0222500Y0111993D01*
X0222500Y0113591D02*
X0221300Y0113591D01*
X0221300Y0115190D02*
X0222500Y0115190D01*
X0222500Y0116788D02*
X0221300Y0116788D01*
X0221300Y0118387D02*
X0222500Y0118387D01*
X0222500Y0119985D02*
X0221300Y0119985D01*
X0221300Y0121584D02*
X0222500Y0121584D01*
X0222500Y0123182D02*
X0221300Y0123182D01*
X0221300Y0124781D02*
X0222500Y0124781D01*
X0222500Y0126379D02*
X0221300Y0126379D01*
X0221300Y0127978D02*
X0222500Y0127978D01*
X0222500Y0129576D02*
X0221300Y0129576D01*
X0221300Y0131175D02*
X0222500Y0131175D01*
X0222500Y0132773D02*
X0221300Y0132773D01*
X0221300Y0134372D02*
X0222500Y0134372D01*
X0222500Y0135970D02*
X0221300Y0135970D01*
X0221300Y0137569D02*
X0222500Y0137569D01*
X0222500Y0139168D02*
X0221300Y0139168D01*
X0221300Y0140766D02*
X0222500Y0140766D01*
X0222500Y0142365D02*
X0221300Y0142365D01*
X0221300Y0143963D02*
X0222500Y0143963D01*
X0222500Y0145562D02*
X0221300Y0145562D01*
X0221300Y0147160D02*
X0222500Y0147160D01*
X0222500Y0148759D02*
X0221300Y0148759D01*
X0221300Y0150357D02*
X0222500Y0150357D01*
X0222500Y0151956D02*
X0221300Y0151956D01*
X0221300Y0153554D02*
X0222500Y0153554D01*
X0222500Y0155153D02*
X0221300Y0155153D01*
X0217100Y0155153D02*
X0215843Y0155153D01*
X0226700Y0155153D02*
X0232400Y0155153D01*
X0232400Y0155466D02*
X0232400Y0105830D01*
X0233458Y0104772D01*
X0231724Y0104054D01*
X0230970Y0103300D01*
X0229970Y0104300D01*
X0226700Y0107570D01*
X0226700Y0155508D01*
X0227276Y0155746D01*
X0228654Y0157124D01*
X0229400Y0158925D01*
X0229400Y0160875D01*
X0228654Y0162676D01*
X0228230Y0163100D01*
X0230770Y0163100D01*
X0230346Y0162676D01*
X0229600Y0160875D01*
X0229600Y0158925D01*
X0230346Y0157124D01*
X0231724Y0155746D01*
X0232400Y0155466D01*
X0232400Y0153554D02*
X0226700Y0153554D01*
X0226700Y0151956D02*
X0232400Y0151956D01*
X0232400Y0150357D02*
X0226700Y0150357D01*
X0226700Y0148759D02*
X0232400Y0148759D01*
X0232400Y0147160D02*
X0226700Y0147160D01*
X0226700Y0145562D02*
X0232400Y0145562D01*
X0232400Y0143963D02*
X0226700Y0143963D01*
X0226700Y0142365D02*
X0232400Y0142365D01*
X0232400Y0140766D02*
X0226700Y0140766D01*
X0226700Y0139168D02*
X0232400Y0139168D01*
X0232400Y0137569D02*
X0226700Y0137569D01*
X0226700Y0135970D02*
X0232400Y0135970D01*
X0232400Y0134372D02*
X0226700Y0134372D01*
X0226700Y0132773D02*
X0232400Y0132773D01*
X0232400Y0131175D02*
X0226700Y0131175D01*
X0226700Y0129576D02*
X0232400Y0129576D01*
X0232400Y0127978D02*
X0226700Y0127978D01*
X0226700Y0126379D02*
X0232400Y0126379D01*
X0232400Y0124781D02*
X0226700Y0124781D01*
X0226700Y0123182D02*
X0232400Y0123182D01*
X0232400Y0121584D02*
X0226700Y0121584D01*
X0226700Y0119985D02*
X0232400Y0119985D01*
X0232400Y0118387D02*
X0226700Y0118387D01*
X0226700Y0116788D02*
X0232400Y0116788D01*
X0232400Y0115190D02*
X0226700Y0115190D01*
X0226700Y0113591D02*
X0232400Y0113591D01*
X0232400Y0111993D02*
X0226700Y0111993D01*
X0226700Y0110394D02*
X0232400Y0110394D01*
X0232400Y0108796D02*
X0226700Y0108796D01*
X0227073Y0107197D02*
X0232400Y0107197D01*
X0232631Y0105599D02*
X0228671Y0105599D01*
X0230270Y0104000D02*
X0231671Y0104000D01*
X0236973Y0107197D02*
X0243200Y0107197D01*
X0243200Y0105599D02*
X0238571Y0105599D01*
X0240170Y0104000D02*
X0241671Y0104000D01*
X0241724Y0104054D02*
X0243387Y0104743D01*
X0243200Y0104930D01*
X0243200Y0155135D01*
X0241724Y0155746D01*
X0240346Y0157124D01*
X0239600Y0158925D01*
X0239600Y0160875D01*
X0240346Y0162676D01*
X0240770Y0163100D01*
X0238230Y0163100D01*
X0238654Y0162676D01*
X0239400Y0160875D01*
X0239400Y0158925D01*
X0238654Y0157124D01*
X0237276Y0155746D01*
X0236600Y0155466D01*
X0236600Y0107570D01*
X0240920Y0103250D01*
X0241724Y0104054D01*
X0243200Y0108796D02*
X0236600Y0108796D01*
X0236600Y0110394D02*
X0243200Y0110394D01*
X0243200Y0111993D02*
X0236600Y0111993D01*
X0236600Y0113591D02*
X0243200Y0113591D01*
X0243200Y0115190D02*
X0236600Y0115190D01*
X0236600Y0116788D02*
X0243200Y0116788D01*
X0243200Y0118387D02*
X0236600Y0118387D01*
X0236600Y0119985D02*
X0243200Y0119985D01*
X0243200Y0121584D02*
X0236600Y0121584D01*
X0236600Y0123182D02*
X0243200Y0123182D01*
X0243200Y0124781D02*
X0236600Y0124781D01*
X0236600Y0126379D02*
X0243200Y0126379D01*
X0243200Y0127978D02*
X0236600Y0127978D01*
X0236600Y0129576D02*
X0243200Y0129576D01*
X0243200Y0131175D02*
X0236600Y0131175D01*
X0236600Y0132773D02*
X0243200Y0132773D01*
X0243200Y0134372D02*
X0236600Y0134372D01*
X0236600Y0135970D02*
X0243200Y0135970D01*
X0243200Y0137569D02*
X0236600Y0137569D01*
X0236600Y0139168D02*
X0243200Y0139168D01*
X0243200Y0140766D02*
X0236600Y0140766D01*
X0236600Y0142365D02*
X0243200Y0142365D01*
X0243200Y0143963D02*
X0236600Y0143963D01*
X0236600Y0145562D02*
X0243200Y0145562D01*
X0243200Y0147160D02*
X0236600Y0147160D01*
X0236600Y0148759D02*
X0243200Y0148759D01*
X0243200Y0150357D02*
X0236600Y0150357D01*
X0236600Y0151956D02*
X0243200Y0151956D01*
X0243200Y0153554D02*
X0236600Y0153554D01*
X0236600Y0155153D02*
X0243157Y0155153D01*
X0240719Y0156751D02*
X0238281Y0156751D01*
X0239162Y0158350D02*
X0239838Y0158350D01*
X0239600Y0159948D02*
X0239400Y0159948D01*
X0239122Y0161547D02*
X0239878Y0161547D01*
X0248230Y0163100D02*
X0250770Y0163100D01*
X0250346Y0162676D01*
X0249600Y0160875D01*
X0249600Y0158925D01*
X0250346Y0157124D01*
X0251724Y0155746D01*
X0253100Y0155176D01*
X0253100Y0104930D01*
X0253317Y0104714D01*
X0251724Y0104054D01*
X0250870Y0103200D01*
X0250670Y0103400D01*
X0247400Y0106670D01*
X0247400Y0155870D01*
X0248654Y0157124D01*
X0249400Y0158925D01*
X0249400Y0160875D01*
X0248654Y0162676D01*
X0248230Y0163100D01*
X0249122Y0161547D02*
X0249878Y0161547D01*
X0249600Y0159948D02*
X0249400Y0159948D01*
X0249162Y0158350D02*
X0249838Y0158350D01*
X0250719Y0156751D02*
X0248281Y0156751D01*
X0247400Y0155153D02*
X0253100Y0155153D01*
X0253100Y0153554D02*
X0247400Y0153554D01*
X0247400Y0151956D02*
X0253100Y0151956D01*
X0253100Y0150357D02*
X0247400Y0150357D01*
X0247400Y0148759D02*
X0253100Y0148759D01*
X0253100Y0147160D02*
X0247400Y0147160D01*
X0247400Y0145562D02*
X0253100Y0145562D01*
X0253100Y0143963D02*
X0247400Y0143963D01*
X0247400Y0142365D02*
X0253100Y0142365D01*
X0253100Y0140766D02*
X0247400Y0140766D01*
X0247400Y0139168D02*
X0253100Y0139168D01*
X0253100Y0137569D02*
X0247400Y0137569D01*
X0247400Y0135970D02*
X0253100Y0135970D01*
X0253100Y0134372D02*
X0247400Y0134372D01*
X0247400Y0132773D02*
X0253100Y0132773D01*
X0253100Y0131175D02*
X0247400Y0131175D01*
X0247400Y0129576D02*
X0253100Y0129576D01*
X0253100Y0127978D02*
X0247400Y0127978D01*
X0247400Y0126379D02*
X0253100Y0126379D01*
X0253100Y0124781D02*
X0247400Y0124781D01*
X0247400Y0123182D02*
X0253100Y0123182D01*
X0253100Y0121584D02*
X0247400Y0121584D01*
X0247400Y0119985D02*
X0253100Y0119985D01*
X0253100Y0118387D02*
X0247400Y0118387D01*
X0247400Y0116788D02*
X0253100Y0116788D01*
X0253100Y0115190D02*
X0247400Y0115190D01*
X0247400Y0113591D02*
X0253100Y0113591D01*
X0253100Y0111993D02*
X0247400Y0111993D01*
X0247400Y0110394D02*
X0253100Y0110394D01*
X0253100Y0108796D02*
X0247400Y0108796D01*
X0247400Y0107197D02*
X0253100Y0107197D01*
X0253100Y0105599D02*
X0248471Y0105599D01*
X0250070Y0104000D02*
X0251671Y0104000D01*
X0257300Y0106670D02*
X0257300Y0155770D01*
X0257600Y0156070D01*
X0257600Y0106370D01*
X0257300Y0106670D01*
X0257300Y0107197D02*
X0257600Y0107197D01*
X0257600Y0108796D02*
X0257300Y0108796D01*
X0257300Y0110394D02*
X0257600Y0110394D01*
X0257600Y0111993D02*
X0257300Y0111993D01*
X0257300Y0113591D02*
X0257600Y0113591D01*
X0257600Y0115190D02*
X0257300Y0115190D01*
X0257300Y0116788D02*
X0257600Y0116788D01*
X0257600Y0118387D02*
X0257300Y0118387D01*
X0257300Y0119985D02*
X0257600Y0119985D01*
X0257600Y0121584D02*
X0257300Y0121584D01*
X0257300Y0123182D02*
X0257600Y0123182D01*
X0257600Y0124781D02*
X0257300Y0124781D01*
X0257300Y0126379D02*
X0257600Y0126379D01*
X0257600Y0127978D02*
X0257300Y0127978D01*
X0257300Y0129576D02*
X0257600Y0129576D01*
X0257600Y0131175D02*
X0257300Y0131175D01*
X0257300Y0132773D02*
X0257600Y0132773D01*
X0257600Y0134372D02*
X0257300Y0134372D01*
X0257300Y0135970D02*
X0257600Y0135970D01*
X0257600Y0137569D02*
X0257300Y0137569D01*
X0257300Y0139168D02*
X0257600Y0139168D01*
X0257600Y0140766D02*
X0257300Y0140766D01*
X0257300Y0142365D02*
X0257600Y0142365D01*
X0257600Y0143963D02*
X0257300Y0143963D01*
X0257300Y0145562D02*
X0257600Y0145562D01*
X0257600Y0147160D02*
X0257300Y0147160D01*
X0257300Y0148759D02*
X0257600Y0148759D01*
X0257600Y0150357D02*
X0257300Y0150357D01*
X0257300Y0151956D02*
X0257600Y0151956D01*
X0257600Y0153554D02*
X0257300Y0153554D01*
X0257300Y0155153D02*
X0257600Y0155153D01*
X0261800Y0155153D02*
X0263000Y0155153D01*
X0263000Y0155218D02*
X0263000Y0105830D01*
X0264030Y0104800D01*
X0263525Y0104800D01*
X0262991Y0104579D01*
X0261800Y0105770D01*
X0261800Y0155715D01*
X0263000Y0155218D01*
X0263000Y0153554D02*
X0261800Y0153554D01*
X0261800Y0151956D02*
X0263000Y0151956D01*
X0263000Y0150357D02*
X0261800Y0150357D01*
X0261800Y0148759D02*
X0263000Y0148759D01*
X0263000Y0147160D02*
X0261800Y0147160D01*
X0261800Y0145562D02*
X0263000Y0145562D01*
X0263000Y0143963D02*
X0261800Y0143963D01*
X0261800Y0142365D02*
X0263000Y0142365D01*
X0263000Y0140766D02*
X0261800Y0140766D01*
X0261800Y0139168D02*
X0263000Y0139168D01*
X0263000Y0137569D02*
X0261800Y0137569D01*
X0261800Y0135970D02*
X0263000Y0135970D01*
X0263000Y0134372D02*
X0261800Y0134372D01*
X0261800Y0132773D02*
X0263000Y0132773D01*
X0263000Y0131175D02*
X0261800Y0131175D01*
X0261800Y0129576D02*
X0263000Y0129576D01*
X0263000Y0127978D02*
X0261800Y0127978D01*
X0261800Y0126379D02*
X0263000Y0126379D01*
X0263000Y0124781D02*
X0261800Y0124781D01*
X0261800Y0123182D02*
X0263000Y0123182D01*
X0263000Y0121584D02*
X0261800Y0121584D01*
X0261800Y0119985D02*
X0263000Y0119985D01*
X0263000Y0118387D02*
X0261800Y0118387D01*
X0261800Y0116788D02*
X0263000Y0116788D01*
X0263000Y0115190D02*
X0261800Y0115190D01*
X0261800Y0113591D02*
X0263000Y0113591D01*
X0263000Y0111993D02*
X0261800Y0111993D01*
X0261800Y0110394D02*
X0263000Y0110394D01*
X0263000Y0108796D02*
X0261800Y0108796D01*
X0261800Y0107197D02*
X0263000Y0107197D01*
X0263231Y0105599D02*
X0261971Y0105599D01*
X0267200Y0107570D02*
X0267200Y0155715D01*
X0267276Y0155746D01*
X0268654Y0157124D01*
X0269400Y0158925D01*
X0269400Y0160875D01*
X0268654Y0162676D01*
X0268230Y0163100D01*
X0270770Y0163100D01*
X0270346Y0162676D01*
X0269600Y0160875D01*
X0269600Y0158925D01*
X0270346Y0157124D01*
X0271724Y0155746D01*
X0273525Y0155000D01*
X0275475Y0155000D01*
X0277276Y0155746D01*
X0278654Y0157124D01*
X0279400Y0158925D01*
X0279400Y0160875D01*
X0278654Y0162676D01*
X0278230Y0163100D01*
X0280770Y0163100D01*
X0280346Y0162676D01*
X0279600Y0160875D01*
X0279600Y0158925D01*
X0280346Y0157124D01*
X0281724Y0155746D01*
X0283525Y0155000D01*
X0285475Y0155000D01*
X0287276Y0155746D01*
X0288654Y0157124D01*
X0289400Y0158925D01*
X0289400Y0160875D01*
X0288654Y0162676D01*
X0288230Y0163100D01*
X0290770Y0163100D01*
X0290346Y0162676D01*
X0289600Y0160875D01*
X0289600Y0158925D01*
X0290346Y0157124D01*
X0291724Y0155746D01*
X0292700Y0155342D01*
X0292700Y0105830D01*
X0293730Y0104800D01*
X0293525Y0104800D01*
X0291724Y0104054D01*
X0290346Y0102676D01*
X0289600Y0100875D01*
X0289600Y0098925D01*
X0290346Y0097124D01*
X0291724Y0095746D01*
X0293525Y0095000D01*
X0295475Y0095000D01*
X0297200Y0095715D01*
X0297200Y0046900D01*
X0282870Y0046900D01*
X0277100Y0052670D01*
X0277100Y0095673D01*
X0277276Y0095746D01*
X0278654Y0097124D01*
X0279400Y0098925D01*
X0279400Y0100875D01*
X0278654Y0102676D01*
X0277276Y0104054D01*
X0275475Y0104800D01*
X0273525Y0104800D01*
X0271724Y0104054D01*
X0271220Y0103550D01*
X0270470Y0104300D01*
X0267200Y0107570D01*
X0267573Y0107197D02*
X0292700Y0107197D01*
X0292700Y0108796D02*
X0267200Y0108796D01*
X0267200Y0110394D02*
X0292700Y0110394D01*
X0292700Y0111993D02*
X0267200Y0111993D01*
X0267200Y0113591D02*
X0292700Y0113591D01*
X0292700Y0115190D02*
X0267200Y0115190D01*
X0267200Y0116788D02*
X0292700Y0116788D01*
X0292700Y0118387D02*
X0267200Y0118387D01*
X0267200Y0119985D02*
X0292700Y0119985D01*
X0292700Y0121584D02*
X0267200Y0121584D01*
X0267200Y0123182D02*
X0292700Y0123182D01*
X0292700Y0124781D02*
X0267200Y0124781D01*
X0267200Y0126379D02*
X0292700Y0126379D01*
X0292700Y0127978D02*
X0267200Y0127978D01*
X0267200Y0129576D02*
X0292700Y0129576D01*
X0292700Y0131175D02*
X0267200Y0131175D01*
X0267200Y0132773D02*
X0292700Y0132773D01*
X0292700Y0134372D02*
X0267200Y0134372D01*
X0267200Y0135970D02*
X0292700Y0135970D01*
X0292700Y0137569D02*
X0267200Y0137569D01*
X0267200Y0139168D02*
X0292700Y0139168D01*
X0292700Y0140766D02*
X0267200Y0140766D01*
X0267200Y0142365D02*
X0292700Y0142365D01*
X0292700Y0143963D02*
X0267200Y0143963D01*
X0267200Y0145562D02*
X0292700Y0145562D01*
X0292700Y0147160D02*
X0267200Y0147160D01*
X0267200Y0148759D02*
X0292700Y0148759D01*
X0292700Y0150357D02*
X0267200Y0150357D01*
X0267200Y0151956D02*
X0292700Y0151956D01*
X0292700Y0153554D02*
X0267200Y0153554D01*
X0267200Y0155153D02*
X0273157Y0155153D01*
X0275843Y0155153D02*
X0283157Y0155153D01*
X0285843Y0155153D02*
X0292700Y0155153D01*
X0290719Y0156751D02*
X0288281Y0156751D01*
X0289162Y0158350D02*
X0289838Y0158350D01*
X0289600Y0159948D02*
X0289400Y0159948D01*
X0289122Y0161547D02*
X0289878Y0161547D01*
X0298230Y0163100D02*
X0300770Y0163100D01*
X0300346Y0162676D01*
X0299600Y0160875D01*
X0299600Y0158925D01*
X0300346Y0157124D01*
X0301724Y0155746D01*
X0302600Y0155383D01*
X0302600Y0105830D01*
X0303630Y0104800D01*
X0303525Y0104800D01*
X0301724Y0104054D01*
X0301070Y0103400D01*
X0300170Y0104300D01*
X0296900Y0107570D01*
X0296900Y0155590D01*
X0297276Y0155746D01*
X0298654Y0157124D01*
X0299400Y0158925D01*
X0299400Y0160875D01*
X0298654Y0162676D01*
X0298230Y0163100D01*
X0299122Y0161547D02*
X0299878Y0161547D01*
X0299600Y0159948D02*
X0299400Y0159948D01*
X0299162Y0158350D02*
X0299838Y0158350D01*
X0300719Y0156751D02*
X0298281Y0156751D01*
X0296900Y0155153D02*
X0302600Y0155153D01*
X0302600Y0153554D02*
X0296900Y0153554D01*
X0296900Y0151956D02*
X0302600Y0151956D01*
X0302600Y0150357D02*
X0296900Y0150357D01*
X0296900Y0148759D02*
X0302600Y0148759D01*
X0302600Y0147160D02*
X0296900Y0147160D01*
X0296900Y0145562D02*
X0302600Y0145562D01*
X0302600Y0143963D02*
X0296900Y0143963D01*
X0296900Y0142365D02*
X0302600Y0142365D01*
X0302600Y0140766D02*
X0296900Y0140766D01*
X0296900Y0139168D02*
X0302600Y0139168D01*
X0302600Y0137569D02*
X0296900Y0137569D01*
X0296900Y0135970D02*
X0302600Y0135970D01*
X0302600Y0134372D02*
X0296900Y0134372D01*
X0296900Y0132773D02*
X0302600Y0132773D01*
X0302600Y0131175D02*
X0296900Y0131175D01*
X0296900Y0129576D02*
X0302600Y0129576D01*
X0302600Y0127978D02*
X0296900Y0127978D01*
X0296900Y0126379D02*
X0302600Y0126379D01*
X0302600Y0124781D02*
X0296900Y0124781D01*
X0296900Y0123182D02*
X0302600Y0123182D01*
X0302600Y0121584D02*
X0296900Y0121584D01*
X0296900Y0119985D02*
X0302600Y0119985D01*
X0302600Y0118387D02*
X0296900Y0118387D01*
X0296900Y0116788D02*
X0302600Y0116788D01*
X0302600Y0115190D02*
X0296900Y0115190D01*
X0296900Y0113591D02*
X0302600Y0113591D01*
X0302600Y0111993D02*
X0296900Y0111993D01*
X0296900Y0110394D02*
X0302600Y0110394D01*
X0302600Y0108796D02*
X0296900Y0108796D01*
X0297273Y0107197D02*
X0302600Y0107197D01*
X0302831Y0105599D02*
X0298871Y0105599D01*
X0300470Y0104000D02*
X0301671Y0104000D01*
X0306800Y0107570D02*
X0306800Y0155549D01*
X0307276Y0155746D01*
X0308654Y0157124D01*
X0309400Y0158925D01*
X0309400Y0160875D01*
X0308654Y0162676D01*
X0308230Y0163100D01*
X0310770Y0163100D01*
X0310346Y0162676D01*
X0309600Y0160875D01*
X0309600Y0158925D01*
X0310346Y0157124D01*
X0311724Y0155746D01*
X0312500Y0155425D01*
X0312500Y0105830D01*
X0313530Y0104800D01*
X0313525Y0104800D01*
X0311724Y0104054D01*
X0311020Y0103350D01*
X0310070Y0104300D01*
X0306800Y0107570D01*
X0307173Y0107197D02*
X0312500Y0107197D01*
X0312500Y0108796D02*
X0306800Y0108796D01*
X0306800Y0110394D02*
X0312500Y0110394D01*
X0312500Y0111993D02*
X0306800Y0111993D01*
X0306800Y0113591D02*
X0312500Y0113591D01*
X0312500Y0115190D02*
X0306800Y0115190D01*
X0306800Y0116788D02*
X0312500Y0116788D01*
X0312500Y0118387D02*
X0306800Y0118387D01*
X0306800Y0119985D02*
X0312500Y0119985D01*
X0312500Y0121584D02*
X0306800Y0121584D01*
X0306800Y0123182D02*
X0312500Y0123182D01*
X0312500Y0124781D02*
X0306800Y0124781D01*
X0306800Y0126379D02*
X0312500Y0126379D01*
X0312500Y0127978D02*
X0306800Y0127978D01*
X0306800Y0129576D02*
X0312500Y0129576D01*
X0312500Y0131175D02*
X0306800Y0131175D01*
X0306800Y0132773D02*
X0312500Y0132773D01*
X0312500Y0134372D02*
X0306800Y0134372D01*
X0306800Y0135970D02*
X0312500Y0135970D01*
X0312500Y0137569D02*
X0306800Y0137569D01*
X0306800Y0139168D02*
X0312500Y0139168D01*
X0312500Y0140766D02*
X0306800Y0140766D01*
X0306800Y0142365D02*
X0312500Y0142365D01*
X0312500Y0143963D02*
X0306800Y0143963D01*
X0306800Y0145562D02*
X0312500Y0145562D01*
X0312500Y0147160D02*
X0306800Y0147160D01*
X0306800Y0148759D02*
X0312500Y0148759D01*
X0312500Y0150357D02*
X0306800Y0150357D01*
X0306800Y0151956D02*
X0312500Y0151956D01*
X0312500Y0153554D02*
X0306800Y0153554D01*
X0306800Y0155153D02*
X0312500Y0155153D01*
X0310719Y0156751D02*
X0308281Y0156751D01*
X0309162Y0158350D02*
X0309838Y0158350D01*
X0309600Y0159948D02*
X0309400Y0159948D01*
X0309122Y0161547D02*
X0309878Y0161547D01*
X0318230Y0163100D02*
X0320770Y0163100D01*
X0320346Y0162676D01*
X0319600Y0160875D01*
X0319600Y0158925D01*
X0320346Y0157124D01*
X0321724Y0155746D01*
X0323525Y0155000D01*
X0325475Y0155000D01*
X0327276Y0155746D01*
X0328654Y0157124D01*
X0329400Y0158925D01*
X0329400Y0160875D01*
X0328654Y0162676D01*
X0328230Y0163100D01*
X0330770Y0163100D01*
X0330346Y0162676D01*
X0329600Y0160875D01*
X0329600Y0158925D01*
X0330346Y0157124D01*
X0331724Y0155746D01*
X0333525Y0155000D01*
X0335475Y0155000D01*
X0337276Y0155746D01*
X0338654Y0157124D01*
X0339400Y0158925D01*
X0339400Y0160875D01*
X0338654Y0162676D01*
X0338230Y0163100D01*
X0340770Y0163100D01*
X0340346Y0162676D01*
X0339600Y0160875D01*
X0339600Y0158925D01*
X0340346Y0157124D01*
X0341724Y0155746D01*
X0342200Y0155549D01*
X0342200Y0107570D01*
X0338930Y0104300D01*
X0337980Y0103350D01*
X0337276Y0104054D01*
X0335475Y0104800D01*
X0333525Y0104800D01*
X0331724Y0104054D01*
X0330346Y0102676D01*
X0329600Y0100875D01*
X0329600Y0098925D01*
X0330346Y0097124D01*
X0331724Y0095746D01*
X0333525Y0095000D01*
X0335475Y0095000D01*
X0337276Y0095746D01*
X0337700Y0096170D01*
X0337700Y0046900D01*
X0326600Y0046900D01*
X0326600Y0095466D01*
X0327276Y0095746D01*
X0328654Y0097124D01*
X0329400Y0098925D01*
X0329400Y0100875D01*
X0328654Y0102676D01*
X0327276Y0104054D01*
X0325475Y0104800D01*
X0323525Y0104800D01*
X0321724Y0104054D01*
X0320970Y0103300D01*
X0319970Y0104300D01*
X0316700Y0107570D01*
X0316700Y0155508D01*
X0317276Y0155746D01*
X0318654Y0157124D01*
X0319400Y0158925D01*
X0319400Y0160875D01*
X0318654Y0162676D01*
X0318230Y0163100D01*
X0319122Y0161547D02*
X0319878Y0161547D01*
X0319600Y0159948D02*
X0319400Y0159948D01*
X0319162Y0158350D02*
X0319838Y0158350D01*
X0320719Y0156751D02*
X0318281Y0156751D01*
X0316700Y0155153D02*
X0323157Y0155153D01*
X0325843Y0155153D02*
X0333157Y0155153D01*
X0335843Y0155153D02*
X0342200Y0155153D01*
X0342200Y0153554D02*
X0316700Y0153554D01*
X0316700Y0151956D02*
X0342200Y0151956D01*
X0342200Y0150357D02*
X0316700Y0150357D01*
X0316700Y0148759D02*
X0342200Y0148759D01*
X0342200Y0147160D02*
X0316700Y0147160D01*
X0316700Y0145562D02*
X0342200Y0145562D01*
X0342200Y0143963D02*
X0316700Y0143963D01*
X0316700Y0142365D02*
X0342200Y0142365D01*
X0342200Y0140766D02*
X0316700Y0140766D01*
X0316700Y0139168D02*
X0342200Y0139168D01*
X0342200Y0137569D02*
X0316700Y0137569D01*
X0316700Y0135970D02*
X0342200Y0135970D01*
X0342200Y0134372D02*
X0316700Y0134372D01*
X0316700Y0132773D02*
X0342200Y0132773D01*
X0342200Y0131175D02*
X0316700Y0131175D01*
X0316700Y0129576D02*
X0342200Y0129576D01*
X0342200Y0127978D02*
X0316700Y0127978D01*
X0316700Y0126379D02*
X0342200Y0126379D01*
X0342200Y0124781D02*
X0316700Y0124781D01*
X0316700Y0123182D02*
X0342200Y0123182D01*
X0342200Y0121584D02*
X0316700Y0121584D01*
X0316700Y0119985D02*
X0342200Y0119985D01*
X0342200Y0118387D02*
X0316700Y0118387D01*
X0316700Y0116788D02*
X0342200Y0116788D01*
X0342200Y0115190D02*
X0316700Y0115190D01*
X0316700Y0113591D02*
X0342200Y0113591D01*
X0342200Y0111993D02*
X0316700Y0111993D01*
X0316700Y0110394D02*
X0342200Y0110394D01*
X0342200Y0108796D02*
X0316700Y0108796D01*
X0317073Y0107197D02*
X0341827Y0107197D01*
X0340229Y0105599D02*
X0318671Y0105599D01*
X0320270Y0104000D02*
X0321671Y0104000D01*
X0327329Y0104000D02*
X0331671Y0104000D01*
X0330233Y0102402D02*
X0328767Y0102402D01*
X0329400Y0100803D02*
X0329600Y0100803D01*
X0329600Y0099205D02*
X0329400Y0099205D01*
X0328854Y0097606D02*
X0330146Y0097606D01*
X0331463Y0096008D02*
X0327537Y0096008D01*
X0326600Y0094409D02*
X0337700Y0094409D01*
X0337700Y0092811D02*
X0326600Y0092811D01*
X0326600Y0091212D02*
X0337700Y0091212D01*
X0337700Y0089614D02*
X0326600Y0089614D01*
X0326600Y0088015D02*
X0337700Y0088015D01*
X0337700Y0086417D02*
X0326600Y0086417D01*
X0326600Y0084818D02*
X0337700Y0084818D01*
X0337700Y0083220D02*
X0326600Y0083220D01*
X0326600Y0081621D02*
X0337700Y0081621D01*
X0337700Y0080023D02*
X0326600Y0080023D01*
X0326600Y0078424D02*
X0337700Y0078424D01*
X0337700Y0076826D02*
X0326600Y0076826D01*
X0326600Y0075227D02*
X0337700Y0075227D01*
X0337700Y0073629D02*
X0326600Y0073629D01*
X0326600Y0072030D02*
X0337700Y0072030D01*
X0337700Y0070432D02*
X0326600Y0070432D01*
X0326600Y0068833D02*
X0337700Y0068833D01*
X0337700Y0067234D02*
X0326600Y0067234D01*
X0326600Y0065636D02*
X0337700Y0065636D01*
X0337700Y0064037D02*
X0326600Y0064037D01*
X0326600Y0062439D02*
X0337700Y0062439D01*
X0337700Y0060840D02*
X0326600Y0060840D01*
X0326600Y0059242D02*
X0337700Y0059242D01*
X0337700Y0057643D02*
X0326600Y0057643D01*
X0326600Y0056045D02*
X0337700Y0056045D01*
X0337700Y0054446D02*
X0326600Y0054446D01*
X0326600Y0052848D02*
X0337700Y0052848D01*
X0337700Y0051249D02*
X0326600Y0051249D01*
X0326600Y0049651D02*
X0337700Y0049651D01*
X0337700Y0048052D02*
X0326600Y0048052D01*
X0322400Y0048052D02*
X0321200Y0048052D01*
X0321200Y0046900D02*
X0322400Y0046900D01*
X0322400Y0095466D01*
X0321724Y0095746D01*
X0321200Y0096270D01*
X0321200Y0046900D01*
X0317000Y0046900D02*
X0311300Y0046900D01*
X0311300Y0096170D01*
X0311724Y0095746D01*
X0313525Y0095000D01*
X0315475Y0095000D01*
X0317000Y0095632D01*
X0317000Y0046900D01*
X0317000Y0048052D02*
X0311300Y0048052D01*
X0311300Y0049651D02*
X0317000Y0049651D01*
X0317000Y0051249D02*
X0311300Y0051249D01*
X0311300Y0052848D02*
X0317000Y0052848D01*
X0317000Y0054446D02*
X0311300Y0054446D01*
X0311300Y0056045D02*
X0317000Y0056045D01*
X0317000Y0057643D02*
X0311300Y0057643D01*
X0311300Y0059242D02*
X0317000Y0059242D01*
X0317000Y0060840D02*
X0311300Y0060840D01*
X0311300Y0062439D02*
X0317000Y0062439D01*
X0317000Y0064037D02*
X0311300Y0064037D01*
X0311300Y0065636D02*
X0317000Y0065636D01*
X0317000Y0067234D02*
X0311300Y0067234D01*
X0311300Y0068833D02*
X0317000Y0068833D01*
X0317000Y0070432D02*
X0311300Y0070432D01*
X0311300Y0072030D02*
X0317000Y0072030D01*
X0317000Y0073629D02*
X0311300Y0073629D01*
X0311300Y0075227D02*
X0317000Y0075227D01*
X0317000Y0076826D02*
X0311300Y0076826D01*
X0311300Y0078424D02*
X0317000Y0078424D01*
X0317000Y0080023D02*
X0311300Y0080023D01*
X0311300Y0081621D02*
X0317000Y0081621D01*
X0317000Y0083220D02*
X0311300Y0083220D01*
X0311300Y0084818D02*
X0317000Y0084818D01*
X0317000Y0086417D02*
X0311300Y0086417D01*
X0311300Y0088015D02*
X0317000Y0088015D01*
X0317000Y0089614D02*
X0311300Y0089614D01*
X0311300Y0091212D02*
X0317000Y0091212D01*
X0317000Y0092811D02*
X0311300Y0092811D01*
X0311300Y0094409D02*
X0317000Y0094409D01*
X0321200Y0094409D02*
X0322400Y0094409D01*
X0322400Y0092811D02*
X0321200Y0092811D01*
X0321200Y0091212D02*
X0322400Y0091212D01*
X0322400Y0089614D02*
X0321200Y0089614D01*
X0321200Y0088015D02*
X0322400Y0088015D01*
X0322400Y0086417D02*
X0321200Y0086417D01*
X0321200Y0084818D02*
X0322400Y0084818D01*
X0322400Y0083220D02*
X0321200Y0083220D01*
X0321200Y0081621D02*
X0322400Y0081621D01*
X0322400Y0080023D02*
X0321200Y0080023D01*
X0321200Y0078424D02*
X0322400Y0078424D01*
X0322400Y0076826D02*
X0321200Y0076826D01*
X0321200Y0075227D02*
X0322400Y0075227D01*
X0322400Y0073629D02*
X0321200Y0073629D01*
X0321200Y0072030D02*
X0322400Y0072030D01*
X0322400Y0070432D02*
X0321200Y0070432D01*
X0321200Y0068833D02*
X0322400Y0068833D01*
X0322400Y0067234D02*
X0321200Y0067234D01*
X0321200Y0065636D02*
X0322400Y0065636D01*
X0322400Y0064037D02*
X0321200Y0064037D01*
X0321200Y0062439D02*
X0322400Y0062439D01*
X0322400Y0060840D02*
X0321200Y0060840D01*
X0321200Y0059242D02*
X0322400Y0059242D01*
X0322400Y0057643D02*
X0321200Y0057643D01*
X0321200Y0056045D02*
X0322400Y0056045D01*
X0322400Y0054446D02*
X0321200Y0054446D01*
X0321200Y0052848D02*
X0322400Y0052848D01*
X0322400Y0051249D02*
X0321200Y0051249D01*
X0321200Y0049651D02*
X0322400Y0049651D01*
X0307100Y0049651D02*
X0301400Y0049651D01*
X0301400Y0051249D02*
X0307100Y0051249D01*
X0307100Y0052848D02*
X0301400Y0052848D01*
X0301400Y0054446D02*
X0307100Y0054446D01*
X0307100Y0056045D02*
X0301400Y0056045D01*
X0301400Y0057643D02*
X0307100Y0057643D01*
X0307100Y0059242D02*
X0301400Y0059242D01*
X0301400Y0060840D02*
X0307100Y0060840D01*
X0307100Y0062439D02*
X0301400Y0062439D01*
X0301400Y0064037D02*
X0307100Y0064037D01*
X0307100Y0065636D02*
X0301400Y0065636D01*
X0301400Y0067234D02*
X0307100Y0067234D01*
X0307100Y0068833D02*
X0301400Y0068833D01*
X0301400Y0070432D02*
X0307100Y0070432D01*
X0307100Y0072030D02*
X0301400Y0072030D01*
X0301400Y0073629D02*
X0307100Y0073629D01*
X0307100Y0075227D02*
X0301400Y0075227D01*
X0301400Y0076826D02*
X0307100Y0076826D01*
X0307100Y0078424D02*
X0301400Y0078424D01*
X0301400Y0080023D02*
X0307100Y0080023D01*
X0307100Y0081621D02*
X0301400Y0081621D01*
X0301400Y0083220D02*
X0307100Y0083220D01*
X0307100Y0084818D02*
X0301400Y0084818D01*
X0301400Y0086417D02*
X0307100Y0086417D01*
X0307100Y0088015D02*
X0301400Y0088015D01*
X0301400Y0089614D02*
X0307100Y0089614D01*
X0307100Y0091212D02*
X0301400Y0091212D01*
X0301400Y0092811D02*
X0307100Y0092811D01*
X0307100Y0094409D02*
X0301400Y0094409D01*
X0301724Y0095746D02*
X0303525Y0095000D01*
X0305475Y0095000D01*
X0307100Y0095673D01*
X0307100Y0046900D01*
X0301400Y0046900D01*
X0301400Y0096070D01*
X0301724Y0095746D01*
X0301463Y0096008D02*
X0301400Y0096008D01*
X0297200Y0094409D02*
X0277100Y0094409D01*
X0277100Y0092811D02*
X0297200Y0092811D01*
X0297200Y0091212D02*
X0277100Y0091212D01*
X0277100Y0089614D02*
X0297200Y0089614D01*
X0297200Y0088015D02*
X0277100Y0088015D01*
X0277100Y0086417D02*
X0297200Y0086417D01*
X0297200Y0084818D02*
X0277100Y0084818D01*
X0277100Y0083220D02*
X0297200Y0083220D01*
X0297200Y0081621D02*
X0277100Y0081621D01*
X0277100Y0080023D02*
X0297200Y0080023D01*
X0297200Y0078424D02*
X0277100Y0078424D01*
X0277100Y0076826D02*
X0297200Y0076826D01*
X0297200Y0075227D02*
X0277100Y0075227D01*
X0277100Y0073629D02*
X0297200Y0073629D01*
X0297200Y0072030D02*
X0277100Y0072030D01*
X0277100Y0070432D02*
X0297200Y0070432D01*
X0297200Y0068833D02*
X0277100Y0068833D01*
X0277100Y0067234D02*
X0297200Y0067234D01*
X0297200Y0065636D02*
X0277100Y0065636D01*
X0277100Y0064037D02*
X0297200Y0064037D01*
X0297200Y0062439D02*
X0277100Y0062439D01*
X0277100Y0060840D02*
X0297200Y0060840D01*
X0297200Y0059242D02*
X0277100Y0059242D01*
X0277100Y0057643D02*
X0297200Y0057643D01*
X0297200Y0056045D02*
X0277100Y0056045D01*
X0277100Y0054446D02*
X0297200Y0054446D01*
X0297200Y0052848D02*
X0277100Y0052848D01*
X0278520Y0051249D02*
X0297200Y0051249D01*
X0297200Y0049651D02*
X0280119Y0049651D01*
X0281717Y0048052D02*
X0297200Y0048052D01*
X0301400Y0048052D02*
X0307100Y0048052D01*
X0276930Y0046900D02*
X0272070Y0046900D01*
X0271700Y0047270D01*
X0271700Y0095770D01*
X0271724Y0095746D01*
X0272900Y0095259D01*
X0272900Y0050930D01*
X0276930Y0046900D01*
X0275778Y0048052D02*
X0271700Y0048052D01*
X0271700Y0049651D02*
X0274179Y0049651D01*
X0272900Y0051249D02*
X0271700Y0051249D01*
X0271700Y0052848D02*
X0272900Y0052848D01*
X0272900Y0054446D02*
X0271700Y0054446D01*
X0271700Y0056045D02*
X0272900Y0056045D01*
X0272900Y0057643D02*
X0271700Y0057643D01*
X0271700Y0059242D02*
X0272900Y0059242D01*
X0272900Y0060840D02*
X0271700Y0060840D01*
X0271700Y0062439D02*
X0272900Y0062439D01*
X0272900Y0064037D02*
X0271700Y0064037D01*
X0271700Y0065636D02*
X0272900Y0065636D01*
X0272900Y0067234D02*
X0271700Y0067234D01*
X0271700Y0068833D02*
X0272900Y0068833D01*
X0272900Y0070432D02*
X0271700Y0070432D01*
X0271700Y0072030D02*
X0272900Y0072030D01*
X0272900Y0073629D02*
X0271700Y0073629D01*
X0271700Y0075227D02*
X0272900Y0075227D01*
X0272900Y0076826D02*
X0271700Y0076826D01*
X0271700Y0078424D02*
X0272900Y0078424D01*
X0272900Y0080023D02*
X0271700Y0080023D01*
X0271700Y0081621D02*
X0272900Y0081621D01*
X0272900Y0083220D02*
X0271700Y0083220D01*
X0271700Y0084818D02*
X0272900Y0084818D01*
X0272900Y0086417D02*
X0271700Y0086417D01*
X0271700Y0088015D02*
X0272900Y0088015D01*
X0272900Y0089614D02*
X0271700Y0089614D01*
X0271700Y0091212D02*
X0272900Y0091212D01*
X0272900Y0092811D02*
X0271700Y0092811D01*
X0271700Y0094409D02*
X0272900Y0094409D01*
X0277537Y0096008D02*
X0281463Y0096008D01*
X0281724Y0095746D02*
X0283525Y0095000D01*
X0285475Y0095000D01*
X0287276Y0095746D01*
X0288654Y0097124D01*
X0289400Y0098925D01*
X0289400Y0100875D01*
X0288654Y0102676D01*
X0287276Y0104054D01*
X0285475Y0104800D01*
X0283525Y0104800D01*
X0281724Y0104054D01*
X0280346Y0102676D01*
X0279600Y0100875D01*
X0279600Y0098925D01*
X0280346Y0097124D01*
X0281724Y0095746D01*
X0280146Y0097606D02*
X0278854Y0097606D01*
X0279400Y0099205D02*
X0279600Y0099205D01*
X0279600Y0100803D02*
X0279400Y0100803D01*
X0278767Y0102402D02*
X0280233Y0102402D01*
X0281671Y0104000D02*
X0277329Y0104000D01*
X0271671Y0104000D02*
X0270770Y0104000D01*
X0269171Y0105599D02*
X0292931Y0105599D01*
X0291671Y0104000D02*
X0287329Y0104000D01*
X0288767Y0102402D02*
X0290233Y0102402D01*
X0289600Y0100803D02*
X0289400Y0100803D01*
X0289400Y0099205D02*
X0289600Y0099205D01*
X0290146Y0097606D02*
X0288854Y0097606D01*
X0287537Y0096008D02*
X0291463Y0096008D01*
X0308771Y0105599D02*
X0312731Y0105599D01*
X0311671Y0104000D02*
X0310370Y0104000D01*
X0311300Y0096008D02*
X0311463Y0096008D01*
X0321200Y0096008D02*
X0321463Y0096008D01*
X0337537Y0096008D02*
X0337700Y0096008D01*
X0341900Y0095673D02*
X0343525Y0095000D01*
X0345475Y0095000D01*
X0347276Y0095746D01*
X0348654Y0097124D01*
X0349400Y0098925D01*
X0349400Y0100875D01*
X0349179Y0101409D01*
X0350276Y0102506D01*
X0349600Y0100875D01*
X0349600Y0098925D01*
X0350346Y0097124D01*
X0351724Y0095746D01*
X0353525Y0095000D01*
X0355475Y0095000D01*
X0357276Y0095746D01*
X0358654Y0097124D01*
X0359400Y0098925D01*
X0359400Y0100875D01*
X0358654Y0102676D01*
X0357276Y0104054D01*
X0355475Y0104800D01*
X0353525Y0104800D01*
X0351894Y0104124D01*
X0362270Y0114500D01*
X0382960Y0114500D01*
X0384760Y0112700D01*
X0388240Y0112700D01*
X0389000Y0113460D01*
X0389000Y0110340D01*
X0388240Y0111100D01*
X0384760Y0111100D01*
X0382300Y0108640D01*
X0382300Y0105160D01*
X0384760Y0102700D01*
X0388240Y0102700D01*
X0389000Y0103460D01*
X0389000Y0082370D01*
X0383833Y0077203D01*
X0383737Y0077300D01*
X0379263Y0077300D01*
X0376100Y0074137D01*
X0376100Y0069663D01*
X0376197Y0069567D01*
X0357500Y0050870D01*
X0357500Y0046900D01*
X0341900Y0046900D01*
X0341900Y0095673D01*
X0341900Y0094409D02*
X0389000Y0094409D01*
X0389000Y0092811D02*
X0341900Y0092811D01*
X0341900Y0091212D02*
X0389000Y0091212D01*
X0389000Y0089614D02*
X0341900Y0089614D01*
X0341900Y0088015D02*
X0389000Y0088015D01*
X0389000Y0086417D02*
X0341900Y0086417D01*
X0341900Y0084818D02*
X0389000Y0084818D01*
X0389000Y0083220D02*
X0341900Y0083220D01*
X0341900Y0081621D02*
X0388251Y0081621D01*
X0386653Y0080023D02*
X0341900Y0080023D01*
X0341900Y0078424D02*
X0385054Y0078424D01*
X0389395Y0076826D02*
X0395900Y0076826D01*
X0395900Y0078424D02*
X0390994Y0078424D01*
X0392592Y0080023D02*
X0395900Y0080023D01*
X0395900Y0081621D02*
X0393200Y0081621D01*
X0393200Y0083220D02*
X0395900Y0083220D01*
X0395900Y0084818D02*
X0393200Y0084818D01*
X0393200Y0086417D02*
X0395900Y0086417D01*
X0395900Y0088015D02*
X0393200Y0088015D01*
X0393200Y0089614D02*
X0395900Y0089614D01*
X0395900Y0091212D02*
X0393200Y0091212D01*
X0393200Y0092811D02*
X0395900Y0092811D01*
X0395900Y0094409D02*
X0393200Y0094409D01*
X0393200Y0096008D02*
X0395900Y0096008D01*
X0395900Y0097606D02*
X0393200Y0097606D01*
X0393200Y0099205D02*
X0395900Y0099205D01*
X0395900Y0100803D02*
X0393200Y0100803D01*
X0393200Y0102402D02*
X0395900Y0102402D01*
X0395900Y0104000D02*
X0393200Y0104000D01*
X0393200Y0105599D02*
X0395900Y0105599D01*
X0395900Y0107197D02*
X0393200Y0107197D01*
X0393200Y0108796D02*
X0395900Y0108796D01*
X0395900Y0110394D02*
X0393200Y0110394D01*
X0393200Y0111993D02*
X0395900Y0111993D01*
X0395900Y0113591D02*
X0393200Y0113591D01*
X0393200Y0115190D02*
X0395900Y0115190D01*
X0395900Y0116788D02*
X0393200Y0116788D01*
X0393200Y0118387D02*
X0395900Y0118387D01*
X0395900Y0119985D02*
X0393200Y0119985D01*
X0393200Y0121584D02*
X0395900Y0121584D01*
X0395900Y0123182D02*
X0392887Y0123182D01*
X0391289Y0124781D02*
X0395900Y0124781D01*
X0395900Y0126379D02*
X0389690Y0126379D01*
X0388092Y0127978D02*
X0395900Y0127978D01*
X0395900Y0129576D02*
X0386493Y0129576D01*
X0384895Y0131175D02*
X0395900Y0131175D01*
X0395900Y0132773D02*
X0383296Y0132773D01*
X0381698Y0134372D02*
X0395900Y0134372D01*
X0395900Y0135970D02*
X0380099Y0135970D01*
X0378501Y0137569D02*
X0395900Y0137569D01*
X0395900Y0139168D02*
X0389707Y0139168D01*
X0390700Y0140160D02*
X0388240Y0137700D01*
X0384760Y0137700D01*
X0382300Y0140160D01*
X0382300Y0143640D01*
X0384760Y0146100D01*
X0388240Y0146100D01*
X0390700Y0143640D01*
X0390700Y0140160D01*
X0390700Y0140766D02*
X0395900Y0140766D01*
X0395900Y0142365D02*
X0390700Y0142365D01*
X0390377Y0143963D02*
X0395900Y0143963D01*
X0395900Y0145562D02*
X0388778Y0145562D01*
X0389298Y0148759D02*
X0395900Y0148759D01*
X0395900Y0150357D02*
X0390700Y0150357D01*
X0390700Y0151956D02*
X0395900Y0151956D01*
X0395900Y0153554D02*
X0390700Y0153554D01*
X0389187Y0155153D02*
X0395900Y0155153D01*
X0395900Y0156751D02*
X0384519Y0156751D01*
X0382920Y0158350D02*
X0395900Y0158350D01*
X0395900Y0159948D02*
X0381322Y0159948D01*
X0379723Y0161547D02*
X0395900Y0161547D01*
X0395900Y0163145D02*
X0378125Y0163145D01*
X0376526Y0164744D02*
X0395900Y0164744D01*
X0395900Y0166342D02*
X0374928Y0166342D01*
X0373329Y0167941D02*
X0395900Y0167941D01*
X0395900Y0169539D02*
X0371731Y0169539D01*
X0370132Y0171138D02*
X0395900Y0171138D01*
X0395900Y0172736D02*
X0368534Y0172736D01*
X0366935Y0174335D02*
X0395900Y0174335D01*
X0395900Y0175933D02*
X0365337Y0175933D01*
X0364192Y0171138D02*
X0334400Y0171138D01*
X0334257Y0169539D02*
X0365791Y0169539D01*
X0367389Y0167941D02*
X0356229Y0167941D01*
X0357828Y0166342D02*
X0368988Y0166342D01*
X0368519Y0164744D02*
X0370586Y0164744D01*
X0369400Y0163145D02*
X0372185Y0163145D01*
X0373783Y0161547D02*
X0369400Y0161547D01*
X0369400Y0159948D02*
X0375382Y0159948D01*
X0376980Y0158350D02*
X0369400Y0158350D01*
X0369400Y0156751D02*
X0378579Y0156751D01*
X0380178Y0155153D02*
X0368615Y0155153D01*
X0364114Y0151956D02*
X0382300Y0151956D01*
X0382300Y0150357D02*
X0365713Y0150357D01*
X0367311Y0148759D02*
X0383702Y0148759D01*
X0384222Y0145562D02*
X0370508Y0145562D01*
X0368910Y0147160D02*
X0395900Y0147160D01*
X0382623Y0143963D02*
X0372107Y0143963D01*
X0373705Y0142365D02*
X0382300Y0142365D01*
X0382300Y0140766D02*
X0375304Y0140766D01*
X0376902Y0139168D02*
X0383293Y0139168D01*
X0375758Y0134372D02*
X0346400Y0134372D01*
X0346400Y0135970D02*
X0374160Y0135970D01*
X0372561Y0137569D02*
X0346400Y0137569D01*
X0346400Y0139168D02*
X0364121Y0139168D01*
X0364284Y0139100D02*
X0365716Y0139100D01*
X0367039Y0139648D01*
X0368052Y0140661D01*
X0368467Y0141663D01*
X0389000Y0121130D01*
X0389000Y0120340D01*
X0388240Y0121100D01*
X0384760Y0121100D01*
X0382360Y0118700D01*
X0360530Y0118700D01*
X0346292Y0104462D01*
X0345475Y0104800D01*
X0345370Y0104800D01*
X0346400Y0105830D01*
X0346400Y0155383D01*
X0347276Y0155746D01*
X0348130Y0156600D01*
X0348830Y0155900D01*
X0361400Y0143330D01*
X0361400Y0141984D01*
X0361948Y0140661D01*
X0362961Y0139648D01*
X0364284Y0139100D01*
X0365879Y0139168D02*
X0370963Y0139168D01*
X0369364Y0140766D02*
X0368096Y0140766D01*
X0361904Y0140766D02*
X0346400Y0140766D01*
X0346400Y0142365D02*
X0361400Y0142365D01*
X0360767Y0143963D02*
X0346400Y0143963D01*
X0346400Y0145562D02*
X0359169Y0145562D01*
X0357570Y0147160D02*
X0346400Y0147160D01*
X0346400Y0148759D02*
X0355972Y0148759D01*
X0354373Y0150357D02*
X0346400Y0150357D01*
X0346400Y0151956D02*
X0352775Y0151956D01*
X0351176Y0153554D02*
X0346400Y0153554D01*
X0346400Y0155153D02*
X0349578Y0155153D01*
X0355613Y0155057D02*
X0357500Y0153170D01*
X0357500Y0155970D01*
X0357276Y0155746D01*
X0355613Y0155057D01*
X0355843Y0155153D02*
X0357500Y0155153D01*
X0357500Y0153554D02*
X0357116Y0153554D01*
X0362516Y0153554D02*
X0381776Y0153554D01*
X0360481Y0164744D02*
X0359426Y0164744D01*
X0353458Y0164772D02*
X0351724Y0164054D01*
X0350970Y0163300D01*
X0349370Y0164900D01*
X0353330Y0164900D01*
X0353458Y0164772D01*
X0353389Y0164744D02*
X0349526Y0164744D01*
X0339878Y0161547D02*
X0339122Y0161547D01*
X0339400Y0159948D02*
X0339600Y0159948D01*
X0339838Y0158350D02*
X0339162Y0158350D01*
X0338281Y0156751D02*
X0340719Y0156751D01*
X0330719Y0156751D02*
X0328281Y0156751D01*
X0329162Y0158350D02*
X0329838Y0158350D01*
X0329600Y0159948D02*
X0329400Y0159948D01*
X0329122Y0161547D02*
X0329878Y0161547D01*
X0280719Y0156751D02*
X0278281Y0156751D01*
X0279162Y0158350D02*
X0279838Y0158350D01*
X0279600Y0159948D02*
X0279400Y0159948D01*
X0279122Y0161547D02*
X0279878Y0161547D01*
X0270719Y0156751D02*
X0268281Y0156751D01*
X0269162Y0158350D02*
X0269838Y0158350D01*
X0269600Y0159948D02*
X0269400Y0159948D01*
X0269122Y0161547D02*
X0269878Y0161547D01*
X0230719Y0156751D02*
X0228281Y0156751D01*
X0229162Y0158350D02*
X0229838Y0158350D01*
X0229600Y0159948D02*
X0229400Y0159948D01*
X0229122Y0161547D02*
X0229878Y0161547D01*
X0182100Y0177532D02*
X0395900Y0177532D01*
X0395900Y0179130D02*
X0182100Y0179130D01*
X0182100Y0180729D02*
X0395900Y0180729D01*
X0377357Y0132773D02*
X0346400Y0132773D01*
X0346400Y0131175D02*
X0378955Y0131175D01*
X0380554Y0129576D02*
X0346400Y0129576D01*
X0346400Y0127978D02*
X0382152Y0127978D01*
X0383751Y0126379D02*
X0346400Y0126379D01*
X0346400Y0124781D02*
X0385349Y0124781D01*
X0386948Y0123182D02*
X0346400Y0123182D01*
X0346400Y0121584D02*
X0388546Y0121584D01*
X0383646Y0119985D02*
X0346400Y0119985D01*
X0346400Y0118387D02*
X0360217Y0118387D01*
X0358619Y0116788D02*
X0346400Y0116788D01*
X0346400Y0115190D02*
X0357020Y0115190D01*
X0355421Y0113591D02*
X0346400Y0113591D01*
X0346400Y0111993D02*
X0353823Y0111993D01*
X0352224Y0110394D02*
X0346400Y0110394D01*
X0346400Y0108796D02*
X0350626Y0108796D01*
X0349027Y0107197D02*
X0346400Y0107197D01*
X0346169Y0105599D02*
X0347429Y0105599D01*
X0350172Y0102402D02*
X0350233Y0102402D01*
X0349600Y0100803D02*
X0349400Y0100803D01*
X0349400Y0099205D02*
X0349600Y0099205D01*
X0350146Y0097606D02*
X0348854Y0097606D01*
X0347537Y0096008D02*
X0351463Y0096008D01*
X0357537Y0096008D02*
X0361463Y0096008D01*
X0361724Y0095746D02*
X0363525Y0095000D01*
X0365475Y0095000D01*
X0367276Y0095746D01*
X0368654Y0097124D01*
X0369400Y0098925D01*
X0369400Y0100875D01*
X0368654Y0102676D01*
X0367276Y0104054D01*
X0365475Y0104800D01*
X0363525Y0104800D01*
X0361724Y0104054D01*
X0360346Y0102676D01*
X0359600Y0100875D01*
X0359600Y0098925D01*
X0360346Y0097124D01*
X0361724Y0095746D01*
X0360146Y0097606D02*
X0358854Y0097606D01*
X0359400Y0099205D02*
X0359600Y0099205D01*
X0359600Y0100803D02*
X0359400Y0100803D01*
X0358767Y0102402D02*
X0360233Y0102402D01*
X0361671Y0104000D02*
X0357329Y0104000D01*
X0354967Y0107197D02*
X0382300Y0107197D01*
X0382300Y0105599D02*
X0353369Y0105599D01*
X0356566Y0108796D02*
X0382456Y0108796D01*
X0384055Y0110394D02*
X0358164Y0110394D01*
X0359763Y0111993D02*
X0389000Y0111993D01*
X0388945Y0110394D02*
X0389000Y0110394D01*
X0383869Y0113591D02*
X0361361Y0113591D01*
X0367329Y0104000D02*
X0383460Y0104000D01*
X0389000Y0102402D02*
X0368767Y0102402D01*
X0369400Y0100803D02*
X0389000Y0100803D01*
X0389000Y0099205D02*
X0369400Y0099205D01*
X0368854Y0097606D02*
X0389000Y0097606D01*
X0389000Y0096008D02*
X0367537Y0096008D01*
X0338630Y0104000D02*
X0337329Y0104000D01*
X0341900Y0076826D02*
X0358789Y0076826D01*
X0359263Y0077300D02*
X0356100Y0074137D01*
X0356100Y0069663D01*
X0359263Y0066500D01*
X0363737Y0066500D01*
X0366900Y0069663D01*
X0366900Y0074137D01*
X0363737Y0077300D01*
X0359263Y0077300D01*
X0357190Y0075227D02*
X0341900Y0075227D01*
X0341900Y0073629D02*
X0356100Y0073629D01*
X0356100Y0072030D02*
X0341900Y0072030D01*
X0341900Y0070432D02*
X0356100Y0070432D01*
X0356930Y0068833D02*
X0341900Y0068833D01*
X0341900Y0067234D02*
X0358529Y0067234D01*
X0364471Y0067234D02*
X0373865Y0067234D01*
X0372266Y0065636D02*
X0341900Y0065636D01*
X0341900Y0064037D02*
X0370668Y0064037D01*
X0369069Y0062439D02*
X0341900Y0062439D01*
X0341900Y0060840D02*
X0367471Y0060840D01*
X0365872Y0059242D02*
X0341900Y0059242D01*
X0341900Y0057643D02*
X0364274Y0057643D01*
X0362675Y0056045D02*
X0341900Y0056045D01*
X0341900Y0054446D02*
X0361077Y0054446D01*
X0359478Y0052848D02*
X0341900Y0052848D01*
X0341900Y0051249D02*
X0357880Y0051249D01*
X0357500Y0049651D02*
X0341900Y0049651D01*
X0341900Y0048052D02*
X0357500Y0048052D01*
X0365418Y0052848D02*
X0395900Y0052848D01*
X0395900Y0054446D02*
X0367016Y0054446D01*
X0368615Y0056045D02*
X0395900Y0056045D01*
X0395900Y0057643D02*
X0370213Y0057643D01*
X0371812Y0059242D02*
X0395900Y0059242D01*
X0395900Y0060840D02*
X0373410Y0060840D01*
X0375009Y0062439D02*
X0395900Y0062439D01*
X0395900Y0064037D02*
X0376607Y0064037D01*
X0378206Y0065636D02*
X0395900Y0065636D01*
X0395900Y0067234D02*
X0384471Y0067234D01*
X0386070Y0068833D02*
X0395900Y0068833D01*
X0395900Y0070432D02*
X0386900Y0070432D01*
X0386900Y0072030D02*
X0395900Y0072030D01*
X0395900Y0073629D02*
X0386900Y0073629D01*
X0387797Y0075227D02*
X0395900Y0075227D01*
X0378789Y0076826D02*
X0364211Y0076826D01*
X0365810Y0075227D02*
X0377190Y0075227D01*
X0376100Y0073629D02*
X0366900Y0073629D01*
X0366900Y0072030D02*
X0376100Y0072030D01*
X0376100Y0070432D02*
X0366900Y0070432D01*
X0366070Y0068833D02*
X0375463Y0068833D01*
X0267500Y0068833D02*
X0261800Y0068833D01*
X0261800Y0067234D02*
X0267500Y0067234D01*
X0267500Y0065636D02*
X0261800Y0065636D01*
X0261800Y0064037D02*
X0267500Y0064037D01*
X0267500Y0062439D02*
X0261800Y0062439D01*
X0261800Y0060840D02*
X0267500Y0060840D01*
X0267500Y0059242D02*
X0261800Y0059242D01*
X0261800Y0057643D02*
X0267500Y0057643D01*
X0267500Y0056045D02*
X0261800Y0056045D01*
X0261800Y0054446D02*
X0267500Y0054446D01*
X0267500Y0052848D02*
X0261800Y0052848D01*
X0261800Y0051249D02*
X0267500Y0051249D01*
X0267500Y0049651D02*
X0261800Y0049651D01*
X0261800Y0048052D02*
X0267500Y0048052D01*
X0267500Y0046900D02*
X0262170Y0046900D01*
X0261800Y0047270D01*
X0261800Y0095715D01*
X0263525Y0095000D01*
X0265475Y0095000D01*
X0267276Y0095746D01*
X0267500Y0095970D01*
X0267500Y0046900D01*
X0254000Y0046900D02*
X0251000Y0046900D01*
X0251000Y0066530D01*
X0254000Y0063530D01*
X0254000Y0046900D01*
X0254000Y0048052D02*
X0251000Y0048052D01*
X0251000Y0049651D02*
X0254000Y0049651D01*
X0254000Y0051249D02*
X0251000Y0051249D01*
X0251000Y0052848D02*
X0254000Y0052848D01*
X0254000Y0054446D02*
X0251000Y0054446D01*
X0251000Y0056045D02*
X0254000Y0056045D01*
X0254000Y0057643D02*
X0251000Y0057643D01*
X0251000Y0059242D02*
X0254000Y0059242D01*
X0254000Y0060840D02*
X0251000Y0060840D01*
X0251000Y0062439D02*
X0254000Y0062439D01*
X0253493Y0064037D02*
X0251000Y0064037D01*
X0251000Y0065636D02*
X0251894Y0065636D01*
X0246800Y0065636D02*
X0241100Y0065636D01*
X0241100Y0067234D02*
X0246800Y0067234D01*
X0246800Y0068030D02*
X0246800Y0046900D01*
X0241100Y0046900D01*
X0241100Y0073730D01*
X0246800Y0068030D01*
X0245997Y0068833D02*
X0241100Y0068833D01*
X0241100Y0070432D02*
X0244399Y0070432D01*
X0242800Y0072030D02*
X0241100Y0072030D01*
X0241100Y0073629D02*
X0241202Y0073629D01*
X0236900Y0073629D02*
X0220400Y0073629D01*
X0220400Y0075227D02*
X0236900Y0075227D01*
X0236900Y0075230D02*
X0236900Y0046900D01*
X0225270Y0046900D01*
X0219337Y0052833D01*
X0220339Y0053248D01*
X0221352Y0054261D01*
X0221900Y0055584D01*
X0221900Y0057016D01*
X0221352Y0058339D01*
X0220400Y0059291D01*
X0220400Y0089570D01*
X0214970Y0095000D01*
X0215475Y0095000D01*
X0217100Y0095673D01*
X0217100Y0095030D01*
X0218330Y0093800D01*
X0236900Y0075230D01*
X0235305Y0076826D02*
X0220400Y0076826D01*
X0220400Y0078424D02*
X0233706Y0078424D01*
X0232108Y0080023D02*
X0220400Y0080023D01*
X0220400Y0081621D02*
X0230509Y0081621D01*
X0228911Y0083220D02*
X0220400Y0083220D01*
X0220400Y0084818D02*
X0227312Y0084818D01*
X0225714Y0086417D02*
X0220400Y0086417D01*
X0220400Y0088015D02*
X0224115Y0088015D01*
X0222516Y0089614D02*
X0220356Y0089614D01*
X0220918Y0091212D02*
X0218758Y0091212D01*
X0219319Y0092811D02*
X0217159Y0092811D01*
X0217721Y0094409D02*
X0215561Y0094409D01*
X0211219Y0092811D02*
X0194300Y0092811D01*
X0194300Y0094409D02*
X0209621Y0094409D01*
X0208022Y0096008D02*
X0194300Y0096008D01*
X0194300Y0097606D02*
X0206424Y0097606D01*
X0204825Y0099205D02*
X0194300Y0099205D01*
X0194300Y0100803D02*
X0203227Y0100803D01*
X0201628Y0102402D02*
X0194300Y0102402D01*
X0194300Y0103760D02*
X0194300Y0077870D01*
X0214833Y0057337D01*
X0215248Y0058339D01*
X0216200Y0059291D01*
X0216200Y0087830D01*
X0195700Y0108330D01*
X0195700Y0105160D01*
X0194300Y0103760D01*
X0194540Y0104000D02*
X0200030Y0104000D01*
X0198431Y0105599D02*
X0195700Y0105599D01*
X0195700Y0107197D02*
X0196833Y0107197D01*
X0193700Y0110640D02*
X0193240Y0111100D01*
X0189760Y0111100D01*
X0188900Y0110240D01*
X0188900Y0113560D01*
X0189760Y0112700D01*
X0193240Y0112700D01*
X0193700Y0113160D01*
X0193700Y0110640D01*
X0193700Y0111993D02*
X0188900Y0111993D01*
X0188900Y0110394D02*
X0189055Y0110394D01*
X0188900Y0103560D02*
X0189760Y0102700D01*
X0190100Y0102700D01*
X0190100Y0079370D01*
X0188900Y0080570D01*
X0188900Y0103560D01*
X0188900Y0102402D02*
X0190100Y0102402D01*
X0190100Y0100803D02*
X0188900Y0100803D01*
X0188900Y0099205D02*
X0190100Y0099205D01*
X0190100Y0097606D02*
X0188900Y0097606D01*
X0188900Y0096008D02*
X0190100Y0096008D01*
X0190100Y0094409D02*
X0188900Y0094409D01*
X0188900Y0092811D02*
X0190100Y0092811D01*
X0190100Y0091212D02*
X0188900Y0091212D01*
X0188900Y0089614D02*
X0190100Y0089614D01*
X0190100Y0088015D02*
X0188900Y0088015D01*
X0188900Y0086417D02*
X0190100Y0086417D01*
X0190100Y0084818D02*
X0188900Y0084818D01*
X0188900Y0083220D02*
X0190100Y0083220D01*
X0190100Y0081621D02*
X0188900Y0081621D01*
X0189447Y0080023D02*
X0190100Y0080023D01*
X0194300Y0080023D02*
X0216200Y0080023D01*
X0216200Y0081621D02*
X0194300Y0081621D01*
X0194300Y0083220D02*
X0216200Y0083220D01*
X0216200Y0084818D02*
X0194300Y0084818D01*
X0194300Y0086417D02*
X0216200Y0086417D01*
X0216015Y0088015D02*
X0194300Y0088015D01*
X0194300Y0089614D02*
X0214416Y0089614D01*
X0212818Y0091212D02*
X0194300Y0091212D01*
X0209167Y0100803D02*
X0209600Y0100803D01*
X0210233Y0102402D02*
X0207568Y0102402D01*
X0205970Y0104000D02*
X0211671Y0104000D01*
X0221300Y0104000D02*
X0221671Y0104000D01*
X0231200Y0096270D02*
X0231724Y0095746D01*
X0233525Y0095000D01*
X0235475Y0095000D01*
X0237276Y0095746D01*
X0237800Y0096270D01*
X0237800Y0082970D01*
X0231200Y0089570D01*
X0231200Y0096270D01*
X0231200Y0096008D02*
X0231463Y0096008D01*
X0231200Y0094409D02*
X0237800Y0094409D01*
X0237800Y0092811D02*
X0231200Y0092811D01*
X0231200Y0091212D02*
X0237800Y0091212D01*
X0237800Y0089614D02*
X0231200Y0089614D01*
X0232755Y0088015D02*
X0237800Y0088015D01*
X0237800Y0086417D02*
X0234353Y0086417D01*
X0235952Y0084818D02*
X0237800Y0084818D01*
X0237800Y0083220D02*
X0237550Y0083220D01*
X0242000Y0083220D02*
X0247700Y0083220D01*
X0247700Y0084818D02*
X0242000Y0084818D01*
X0242000Y0086417D02*
X0247700Y0086417D01*
X0247700Y0088015D02*
X0242000Y0088015D01*
X0242000Y0089614D02*
X0247700Y0089614D01*
X0247700Y0091212D02*
X0242000Y0091212D01*
X0242000Y0092811D02*
X0247700Y0092811D01*
X0247700Y0094409D02*
X0242000Y0094409D01*
X0242000Y0095632D02*
X0243525Y0095000D01*
X0245475Y0095000D01*
X0247276Y0095746D01*
X0247700Y0096170D01*
X0247700Y0075770D01*
X0242000Y0081470D01*
X0242000Y0095632D01*
X0247537Y0096008D02*
X0247700Y0096008D01*
X0251900Y0095673D02*
X0253525Y0095000D01*
X0255475Y0095000D01*
X0257276Y0095746D01*
X0257600Y0096070D01*
X0257600Y0068570D01*
X0251900Y0074270D01*
X0251900Y0095673D01*
X0251900Y0094409D02*
X0257600Y0094409D01*
X0257600Y0092811D02*
X0251900Y0092811D01*
X0251900Y0091212D02*
X0257600Y0091212D01*
X0257600Y0089614D02*
X0251900Y0089614D01*
X0251900Y0088015D02*
X0257600Y0088015D01*
X0257600Y0086417D02*
X0251900Y0086417D01*
X0251900Y0084818D02*
X0257600Y0084818D01*
X0257600Y0083220D02*
X0251900Y0083220D01*
X0251900Y0081621D02*
X0257600Y0081621D01*
X0257600Y0080023D02*
X0251900Y0080023D01*
X0251900Y0078424D02*
X0257600Y0078424D01*
X0257600Y0076826D02*
X0251900Y0076826D01*
X0251900Y0075227D02*
X0257600Y0075227D01*
X0257600Y0073629D02*
X0252541Y0073629D01*
X0254140Y0072030D02*
X0257600Y0072030D01*
X0257600Y0070432D02*
X0255738Y0070432D01*
X0257337Y0068833D02*
X0257600Y0068833D01*
X0261800Y0070432D02*
X0267500Y0070432D01*
X0267500Y0072030D02*
X0261800Y0072030D01*
X0261800Y0073629D02*
X0267500Y0073629D01*
X0267500Y0075227D02*
X0261800Y0075227D01*
X0261800Y0076826D02*
X0267500Y0076826D01*
X0267500Y0078424D02*
X0261800Y0078424D01*
X0261800Y0080023D02*
X0267500Y0080023D01*
X0267500Y0081621D02*
X0261800Y0081621D01*
X0261800Y0083220D02*
X0267500Y0083220D01*
X0267500Y0084818D02*
X0261800Y0084818D01*
X0261800Y0086417D02*
X0267500Y0086417D01*
X0267500Y0088015D02*
X0261800Y0088015D01*
X0261800Y0089614D02*
X0267500Y0089614D01*
X0267500Y0091212D02*
X0261800Y0091212D01*
X0261800Y0092811D02*
X0267500Y0092811D01*
X0267500Y0094409D02*
X0261800Y0094409D01*
X0257600Y0096008D02*
X0257537Y0096008D01*
X0237800Y0096008D02*
X0237537Y0096008D01*
X0227000Y0095632D02*
X0227000Y0091070D01*
X0222748Y0095322D01*
X0223525Y0095000D01*
X0225475Y0095000D01*
X0227000Y0095632D01*
X0227000Y0094409D02*
X0223661Y0094409D01*
X0225259Y0092811D02*
X0227000Y0092811D01*
X0227000Y0091212D02*
X0226858Y0091212D01*
X0242000Y0081621D02*
X0247700Y0081621D01*
X0247700Y0080023D02*
X0243447Y0080023D01*
X0245046Y0078424D02*
X0247700Y0078424D01*
X0247700Y0076826D02*
X0246644Y0076826D01*
X0236900Y0072030D02*
X0220400Y0072030D01*
X0220400Y0070432D02*
X0236900Y0070432D01*
X0236900Y0068833D02*
X0220400Y0068833D01*
X0220400Y0067234D02*
X0236900Y0067234D01*
X0236900Y0065636D02*
X0220400Y0065636D01*
X0220400Y0064037D02*
X0236900Y0064037D01*
X0236900Y0062439D02*
X0220400Y0062439D01*
X0220400Y0060840D02*
X0236900Y0060840D01*
X0236900Y0059242D02*
X0220449Y0059242D01*
X0221640Y0057643D02*
X0236900Y0057643D01*
X0236900Y0056045D02*
X0221900Y0056045D01*
X0221429Y0054446D02*
X0236900Y0054446D01*
X0236900Y0052848D02*
X0219373Y0052848D01*
X0220920Y0051249D02*
X0236900Y0051249D01*
X0236900Y0049651D02*
X0222519Y0049651D01*
X0224117Y0048052D02*
X0236900Y0048052D01*
X0241100Y0048052D02*
X0246800Y0048052D01*
X0246800Y0049651D02*
X0241100Y0049651D01*
X0241100Y0051249D02*
X0246800Y0051249D01*
X0246800Y0052848D02*
X0241100Y0052848D01*
X0241100Y0054446D02*
X0246800Y0054446D01*
X0246800Y0056045D02*
X0241100Y0056045D01*
X0241100Y0057643D02*
X0246800Y0057643D01*
X0246800Y0059242D02*
X0241100Y0059242D01*
X0241100Y0060840D02*
X0246800Y0060840D01*
X0246800Y0062439D02*
X0241100Y0062439D01*
X0241100Y0064037D02*
X0246800Y0064037D01*
X0216200Y0064037D02*
X0208132Y0064037D01*
X0209731Y0062439D02*
X0216200Y0062439D01*
X0216200Y0060840D02*
X0211329Y0060840D01*
X0212928Y0059242D02*
X0216151Y0059242D01*
X0214960Y0057643D02*
X0214526Y0057643D01*
X0216200Y0065636D02*
X0206534Y0065636D01*
X0204935Y0067234D02*
X0216200Y0067234D01*
X0216200Y0068833D02*
X0203337Y0068833D01*
X0201738Y0070432D02*
X0216200Y0070432D01*
X0216200Y0072030D02*
X0200140Y0072030D01*
X0198541Y0073629D02*
X0216200Y0073629D01*
X0216200Y0075227D02*
X0196943Y0075227D01*
X0195344Y0076826D02*
X0216200Y0076826D01*
X0216200Y0078424D02*
X0194300Y0078424D01*
X0188900Y0120240D02*
X0188900Y0138560D01*
X0189760Y0137700D01*
X0193240Y0137700D01*
X0193285Y0137745D01*
X0193700Y0137330D01*
X0193700Y0120640D01*
X0193240Y0121100D01*
X0189760Y0121100D01*
X0188900Y0120240D01*
X0188900Y0121584D02*
X0193700Y0121584D01*
X0193700Y0123182D02*
X0188900Y0123182D01*
X0188900Y0124781D02*
X0193700Y0124781D01*
X0193700Y0126379D02*
X0188900Y0126379D01*
X0188900Y0127978D02*
X0193700Y0127978D01*
X0193700Y0129576D02*
X0188900Y0129576D01*
X0188900Y0131175D02*
X0193700Y0131175D01*
X0193700Y0132773D02*
X0188900Y0132773D01*
X0188900Y0134372D02*
X0193700Y0134372D01*
X0193700Y0135970D02*
X0188900Y0135970D01*
X0188900Y0137569D02*
X0193461Y0137569D01*
D11*
X0361500Y0071900D03*
X0381500Y0071900D03*
D12*
X0364500Y0159900D03*
D13*
X0354500Y0159900D03*
X0344500Y0159900D03*
X0334500Y0159900D03*
X0324500Y0159900D03*
X0314500Y0159900D03*
X0304500Y0159900D03*
X0294500Y0159900D03*
X0284500Y0159900D03*
X0274500Y0159900D03*
X0264500Y0159900D03*
X0254500Y0159900D03*
X0244500Y0159900D03*
X0234500Y0159900D03*
X0224500Y0159900D03*
X0214500Y0159900D03*
X0214500Y0099900D03*
X0224500Y0099900D03*
X0234500Y0099900D03*
X0244500Y0099900D03*
X0254500Y0099900D03*
X0264500Y0099900D03*
X0274500Y0099900D03*
X0284500Y0099900D03*
X0294500Y0099900D03*
X0304500Y0099900D03*
X0314500Y0099900D03*
X0324500Y0099900D03*
X0334500Y0099900D03*
X0344500Y0099900D03*
X0354500Y0099900D03*
X0364500Y0099900D03*
D14*
X0386500Y0106900D03*
X0386500Y0116900D03*
X0386500Y0141900D03*
X0386500Y0151900D03*
X0191500Y0151900D03*
X0191500Y0141900D03*
X0191500Y0116900D03*
X0191500Y0106900D03*
D15*
X0219000Y0019400D03*
X0229000Y0019400D03*
X0239000Y0019400D03*
X0249000Y0019400D03*
X0259000Y0019400D03*
X0269000Y0019400D03*
X0279000Y0019400D03*
X0289000Y0019400D03*
X0299000Y0019400D03*
X0309000Y0019400D03*
X0319000Y0019400D03*
X0329000Y0019400D03*
X0339000Y0019400D03*
X0349000Y0019400D03*
X0359000Y0019400D03*
D16*
X0359600Y0019400D01*
X0359600Y0050000D01*
X0381500Y0071900D01*
X0391100Y0081500D01*
X0391100Y0122000D01*
X0359600Y0153500D01*
X0359600Y0161600D01*
X0354200Y0167000D01*
X0221000Y0167000D01*
X0214700Y0160700D01*
X0214500Y0159900D01*
X0219200Y0161600D02*
X0222800Y0165200D01*
X0257000Y0165200D01*
X0259700Y0162500D01*
X0259700Y0104900D01*
X0264200Y0100400D01*
X0264500Y0099900D01*
X0259700Y0101300D02*
X0259700Y0046400D01*
X0278600Y0027500D01*
X0278600Y0019400D01*
X0279000Y0019400D01*
X0288500Y0019400D02*
X0289000Y0019400D01*
X0288500Y0019400D02*
X0288500Y0027500D01*
X0269600Y0046400D01*
X0269600Y0102200D01*
X0265100Y0106700D01*
X0265100Y0159800D01*
X0264500Y0159900D01*
X0259700Y0162500D02*
X0262400Y0165200D01*
X0346100Y0165200D01*
X0349700Y0161600D01*
X0349700Y0158000D01*
X0365000Y0142700D01*
X0385700Y0152600D02*
X0386500Y0151900D01*
X0385700Y0152600D02*
X0364100Y0174200D01*
X0217400Y0174200D01*
X0195800Y0152600D01*
X0192200Y0152600D01*
X0191500Y0151900D01*
X0192200Y0146300D02*
X0189500Y0146300D01*
X0186800Y0143600D01*
X0186800Y0079700D01*
X0218300Y0048200D01*
X0218300Y0019400D01*
X0219000Y0019400D01*
X0228200Y0019400D02*
X0229000Y0019400D01*
X0228200Y0019400D02*
X0228200Y0041000D01*
X0192200Y0077000D01*
X0192200Y0106700D01*
X0191500Y0106900D01*
X0195800Y0111200D02*
X0195800Y0138200D01*
X0192200Y0141800D01*
X0191500Y0141900D01*
X0192200Y0146300D02*
X0216500Y0170600D01*
X0330800Y0170600D01*
X0344300Y0159800D02*
X0344500Y0159900D01*
X0344300Y0159800D02*
X0344300Y0106700D01*
X0339800Y0102200D01*
X0339800Y0036500D01*
X0348800Y0027500D01*
X0348800Y0019400D01*
X0349000Y0019400D01*
X0339000Y0019400D02*
X0338900Y0019400D01*
X0338900Y0027500D01*
X0324500Y0041900D01*
X0324500Y0099900D01*
X0319100Y0102200D02*
X0319100Y0037400D01*
X0329000Y0027500D01*
X0329000Y0019400D01*
X0319000Y0019400D02*
X0318200Y0019400D01*
X0318200Y0028400D01*
X0309200Y0037400D01*
X0309200Y0102200D01*
X0304700Y0106700D01*
X0304700Y0159800D01*
X0304500Y0159900D01*
X0294800Y0159800D02*
X0294500Y0159900D01*
X0294800Y0159800D02*
X0294800Y0106700D01*
X0299300Y0102200D01*
X0299300Y0037400D01*
X0308300Y0028400D01*
X0308300Y0019400D01*
X0309000Y0019400D01*
X0299000Y0019400D02*
X0298400Y0019400D01*
X0298400Y0028400D01*
X0275000Y0051800D01*
X0275000Y0099500D01*
X0274500Y0099900D01*
X0259700Y0101300D02*
X0255200Y0105800D01*
X0255200Y0159800D01*
X0254500Y0159900D01*
X0245300Y0159800D02*
X0244500Y0159900D01*
X0245300Y0159800D02*
X0245300Y0105800D01*
X0249800Y0101300D01*
X0249800Y0073400D01*
X0257900Y0065300D01*
X0257900Y0038300D01*
X0268700Y0027500D01*
X0268700Y0019400D01*
X0269000Y0019400D01*
X0259000Y0019400D02*
X0258800Y0019400D01*
X0256100Y0022100D01*
X0256100Y0064400D01*
X0239900Y0080600D01*
X0239900Y0101300D01*
X0234500Y0106700D01*
X0234500Y0159900D01*
X0224600Y0159800D02*
X0224500Y0159900D01*
X0224600Y0159800D02*
X0224600Y0106700D01*
X0229100Y0102200D01*
X0229100Y0088700D01*
X0248900Y0068900D01*
X0248900Y0019400D01*
X0249000Y0019400D01*
X0239000Y0019400D02*
X0239000Y0076100D01*
X0219200Y0095900D01*
X0219200Y0161600D01*
X0314500Y0159900D02*
X0314600Y0159800D01*
X0314600Y0106700D01*
X0319100Y0102200D01*
X0344500Y0099900D02*
X0345200Y0100400D01*
X0361400Y0116600D01*
X0385700Y0116600D01*
X0386500Y0116900D01*
X0218300Y0088700D02*
X0218300Y0056300D01*
X0218300Y0088700D02*
X0195800Y0111200D01*
D17*
X0218300Y0056300D03*
X0365000Y0142700D03*
X0330800Y0170600D03*
M02*
