%
M48
M72
T01C0.02400
T02C0.03200
T03C0.04400
%
T01
X330800Y170600
X365000Y142700
X218300Y56300
T02
X191500Y151900
X191500Y141900
X191500Y116900
X191500Y106900
X361500Y71900
X381500Y71900
X386500Y106900
X386500Y116900
X386500Y141900
X386500Y151900
T03
X214500Y159900
X224500Y159900
X234500Y159900
X244500Y159900
X254500Y159900
X264500Y159900
X274500Y159900
X284500Y159900
X294500Y159900
X304500Y159900
X314500Y159900
X324500Y159900
X334500Y159900
X344500Y159900
X354500Y159900
X364500Y159900
X364500Y99900
X354500Y99900
X344500Y99900
X334500Y99900
X324500Y99900
X314500Y99900
X304500Y99900
X294500Y99900
X284500Y99900
X274500Y99900
X264500Y99900
X254500Y99900
X244500Y99900
X234500Y99900
X224500Y99900
X214500Y99900
M30
